<svg width="20" height="20" version="1.1" viewBox="0 0 20 20" xmlns="http://www.w3.org/2000/svg">
   <path d="m10 0a10 10 0 0 0-10 10 10 10 0 0 0 10 10 10 10 0 0 0 10-10 10 10 0 0 0-10-10zm4.4557 6.0339a0.88824 0.88824 0 0 1 0.58333 1.5482l-6.6615 6.1497a0.88824 0.88824 0 0 1-1.2266-0.022136l-2.2201-2.1953a0.88835 0.88835 0 1 1 1.2487-1.263l1.6172 1.6003 6.0378-5.5742a0.88824 0.88824 0 0 1 0.62109-0.24349z" fill="#a2c14e" style="paint-order:markers fill stroke" />
   <ellipse cx="-22.53" cy="-3.7733" rx="2.6441" ry="2.339" fill="none" style="paint-order:markers fill stroke" />
</svg>