<svg width="20" height="20" version="1.1" viewBox="0 0 6.35 6.35" xmlns="http://www.w3.org/2000/svg">
  <g transform="translate(-40.84 -107.62)">
    <path d="m44.015 107.62a3.175 3.175 0 0 0-3.175 3.175 3.175 3.175 0 0 0 3.175 3.175 3.175 3.175 0 0 0 3.175-3.175 3.175 3.175 0 0 0-3.175-3.175zm-0.22138 1.5875h0.4478v0.8453c0 0.12411-2e-3 0.23816-5e-3 0.34215-3e-3 0.10398-0.01 0.20295-0.0201 0.29688-7e-3 0.0939-0.0151 0.18784-0.0252 0.28176-0.0101 0.0906-0.0201 0.18617-0.0302 0.28681h-0.28681c-0.0101-0.10064-0.0202-0.19624-0.0302-0.28681-0.0101-0.0939-0.0201-0.18784-0.0301-0.28176-7e-3 -0.0939-0.0118-0.1929-0.0151-0.29688-3e-3 -0.10399-5e-3 -0.21804-5e-3 -0.34215zm0.22138 2.4907c0.0939 0 0.17276 0.0318 0.2365 0.0956 0.0671 0.0604 0.10061 0.14258 0.10061 0.24657s-0.0335 0.18788-0.10061 0.25161c-0.0637 0.0604-0.14258 0.0905-0.2365 0.0905-0.0906 0-0.16941-0.0302-0.2365-0.0905-0.0671-0.0637-0.10061-0.14762-0.10061-0.25161s0.0335-0.18619 0.10061-0.24657c0.0671-0.0637 0.14593-0.0956 0.2365-0.0956z" fill="#a00" style="paint-order:markers fill stroke" />
  </g>
</svg>