<svg width="16" height="16" version="1.1" viewBox="0 0 5.08 5.08" xmlns="http://www.w3.org/2000/svg">
  <path d="m2.5405 0c-1.4012 0-2.5405 1.1398-2.5405 2.541 0 1.4012 1.1393
          2.539 2.5405 2.539 1.4012 0 2.5395-1.1378 2.5395-2.539
          0-1.4012-1.1383-2.541-2.5395-2.541zm0 0.26591c1.2578 0 2.2751 1.0173
          2.2751 2.2751s-1.0173 2.2731-2.2751 2.2731c-1.2578
          0-2.2746-1.0153-2.2746-2.2731s1.0168-2.2751 2.2746-2.2751zm-0.16073
          1.0046c-0.064648 0-0.12043 0.022253-0.16768 0.066973-0.047248
          0.04476-0.070942 0.10544-0.070942 0.18256 0 0.07708 0.023694 0.13834
          0.070942 0.18306 0.04724 0.0448 0.10303 0.066973 0.16768 0.066973
          0.067136 0 0.12342-0.022253 0.16818-0.066973 0.047248-0.04476
          0.070942-0.10594 0.070942-0.18306
          0-0.077088-0.023694-0.13784-0.070942-0.18256-0.04476-0.0448-0.10104-0.066973-0.16818-0.066973zm-0.57795
          0.76795v0.25747h0.50006v0.80566c0 0.11686 0.00839 0.22005 0.025797
          0.30956 0.0174 0.087032 0.047521 0.16059 0.089793 0.22027 0.044752
          0.059696 0.10301 0.10411 0.17512 0.13395s0.16295 0.045145 0.27236
          0.045145c0.047248 0 0.092169-0.00421 0.13444-0.01141 0.04476-0.00744
          0.084255-0.015877 0.11906-0.025797 0.037296-0.00992 0.069882-0.020342
          0.097234-0.030262 0.027352-0.01248 0.048084-0.022566
          0.063004-0.029766l-0.044648-0.26095c-0.034816 0.01984-0.083195
          0.038618-0.14536 0.056058-0.05968 0.01736-0.12533 0.025797-0.19745
          0.025797-0.094488
          0-0.16558-0.028624-0.21282-0.085824-0.047248-0.059672-0.070941-0.17519-0.070941-0.34677v-1.0631z" fill="#282828" stroke-width=".8" style="paint-order:markers fill stroke" />
</svg>