<svg width="20" height="20" version="1.1" viewBox="0 0 6.35 6.35" xmlns="http://www.w3.org/2000/svg">
  <g transform="translate(-40.84 -107.62)">
    <path d="m44.015 107.62a3.175 3.175 0 0 0-3.175 3.175 3.175 3.175 0 0 0 3.175 3.175 3.175 3.175 0 0 0 3.175-3.175 3.175 3.175 0 0 0-3.175-3.175zm-0.20045 1.5875c0.08392 0 0.15381 0.0279 0.20976 0.0839 0.05906 0.0559 0.0886 0.13208 0.0886 0.22844 0 0.0964-0.02954 0.17256-0.0886 0.22851-0.05595 0.0559-0.12584 0.0839-0.20976 0.0839-0.08081 0-0.15078-0.0279-0.20983-0.0839-0.05906-0.0559-0.0886-0.13216-0.0886-0.22851 0-0.0964 0.02954-0.17249 0.0886-0.22844 0.05906-0.0559 0.12902-0.0839 0.20983-0.0839zm-0.72267 0.96041h1.0071v1.3288c0 0.21447 0.02954 0.35895 0.0886 0.43354 0.05906 0.0715 0.14761 0.10728 0.26572 0.10728 0.09014 0 0.17252-0.0109 0.24712-0.0326 0.0777-0.0218 0.13833-0.0451 0.18185-0.0699l0.05589 0.32634c-0.01865 9e-3 -0.04503 0.0217-0.07922 0.0373-0.03419 0.0124-0.07461 0.0249-0.12123 0.0373-0.04351 0.0124-0.09327 0.0233-0.14922 0.0326-0.05284 9e-3 -0.10876 0.014-0.16782 0.014-0.13676 0-0.25023-0.0187-0.34037-0.056-0.09014-0.0373-0.16319-0.0932-0.21913-0.16782-0.05284-0.0746-0.0901-0.16631-0.11185-0.2751-0.02176-0.11189-0.03263-0.24087-0.03263-0.38695v-1.0071h-0.62477z" fill="#1b8d9b" style="paint-order:markers fill stroke" />
  </g>
</svg>