<svg width="20" height="20" version="1.1" viewBox="0 0 6.35 6.35" xmlns="http://www.w3.org/2000/svg">
  <g transform="translate(-40.84 -107.62)">
    <path d="m43.999 108c-0.09957 6e-3 -0.18971 0.0606-0.23952 0.147l-2.8801 4.9884c-0.11336 0.19641 0.02841 0.4419 0.25518 0.44191h5.7602c0.22664-3e-4 0.36816-0.24561 0.25487-0.44191l-2.8798-4.9884c-0.05541-0.096-0.16009-0.15284-0.27083-0.147zm-0.20588 1.5184h0.4478v0.8453c0 0.1242-0.0017 0.23817-0.0051 0.34215-0.0032 0.10395-0.01005 0.20296-0.02009 0.29688-0.0068 0.0939-0.01512 0.18784-0.0252 0.28177-0.01005 0.0906-0.02009 0.18617-0.03017 0.2868h-0.28681c-0.01005-0.10065-0.02016-0.19623-0.03024-0.2868l-0.03017-0.28177c-0.0067-0.0939-0.0117-0.19289-0.01512-0.29688-0.0032-0.10395-0.0051-0.21803-0.0051-0.34215zm0.22138 2.4906c0.09393 0 0.17276 0.0319 0.2365 0.0957 0.06708 0.0604 0.10062 0.1425 0.10062 0.24651 0 0.10395-0.03354 0.18788-0.10062 0.25161-0.06373 0.0604-0.14258 0.0906-0.2365 0.0906-0.09057 0-0.16941-0.0303-0.2365-0.0906-0.0671-0.0638-0.10062-0.1476-0.10062-0.25161 0-0.10395 0.03354-0.18612 0.10062-0.24651 0.06708-0.0638 0.14592-0.0957 0.2365-0.0957z" color="#000000" color-rendering="auto" dominant-baseline="auto" fill="#a80" image-rendering="auto" shape-rendering="auto" solid-color="#000000" style="font-feature-settings:normal;font-variant-alternates:normal;font-variant-caps:normal;font-variant-ligatures:normal;font-variant-numeric:normal;font-variant-position:normal;isolation:auto;mix-blend-mode:normal;paint-order:markers fill stroke;shape-padding:0;text-decoration-color:#000000;text-decoration-line:none;text-decoration-style:solid;text-indent:0;text-orientation:mixed;text-transform:none;white-space:normal" />
  </g>
</svg>